<?xml version="1.0" encoding="iso-8859-1"?>
<!-- Generator: Adobe Illustrator 18.0.0, SVG Export Plug-In . SVG Version: 6.00 Build 0)  -->
<!DOCTYPE svg PUBLIC "-//W3C//DTD SVG 1.1//EN" "http://www.w3.org/Graphics/SVG/1.1/DTD/svg11.dtd">
<svg version="1.1" id="Capa_1" xmlns="http://www.w3.org/2000/svg" xmlns:xlink="http://www.w3.org/1999/xlink" x="0px" y="0px"
	 viewBox="0 0 297 297" style="enable-background:new 0 0 297 297;" xml:space="preserve">
<g>
	<path d="M149.134,91.569c2.987,2.68,7.579,2.429,10.255-0.557c1.464-1.632,3.462-2.53,5.627-2.53s4.163,0.898,5.627,2.53
		c1.434,1.599,3.417,2.413,5.409,2.413c1.727,0,3.46-0.613,4.846-1.856c2.985-2.678,3.235-7.269,0.557-10.255
		c-4.194-4.675-10.185-7.357-16.439-7.357c-6.254,0-12.245,2.682-16.439,7.357C145.899,84.3,146.149,88.891,149.134,91.569z"/>
	<path d="M82.118,91.569c1.387,1.244,3.12,1.856,4.846,1.856c1.991,0,3.975-0.814,5.409-2.413c1.464-1.632,3.462-2.53,5.627-2.53
		s4.163,0.898,5.625,2.529c2.676,2.985,7.268,3.237,10.255,0.559c2.986-2.677,3.237-7.269,0.559-10.255
		c-4.193-4.676-10.184-7.358-16.439-7.358c-6.254,0-12.246,2.682-16.439,7.357C78.883,84.3,79.132,88.891,82.118,91.569z"/>
	<path d="M125.698,105.704v21.952c0,1.199-1.466,2.421-2.905,2.421c-1.335,0-2.421-1.086-2.421-2.421c0-3.208-2.601-5.81-5.81-5.81
		c-3.208,0-5.81,2.601-5.81,5.81c0,7.742,6.299,14.04,14.04,14.04c3.242,0,6.266-1.102,8.715-2.916
		c2.448,1.814,5.473,2.916,8.715,2.916c7.742,0,14.04-6.299,14.04-14.04c0-3.208-2.601-5.81-5.81-5.81
		c-3.208,0-5.81,2.601-5.81,5.81c0,1.335-1.086,2.421-2.421,2.421c-1.439,0-2.905-1.222-2.905-2.421v-21.952
		c4.222-1.375,9.199-3.499,9.199-5.886c0-4.145-6.72-7.504-15.009-7.504c-8.289,0-15.009,3.36-15.009,7.504
		C116.499,102.205,121.476,104.33,125.698,105.704z"/>
	<path d="M221.075,94.069V27.247c0-9.007-4.44-17.417-11.877-22.497c-7.44-5.082-16.889-6.156-25.279-2.882l-25.164,9.826
		c-8.596-2.506-17.75-3.864-27.247-3.864c-9.497,0-18.651,1.358-27.247,3.864L79.095,1.868C70.703-1.408,61.255-0.33,53.818,4.75
		C46.38,9.83,41.941,18.24,41.941,27.247v62.162c0,10.821,2.331,21.154,6.55,30.611c-18.033,16.922-29.294,40.288-31.217,65.286
		c-1.128,15.789,2.508,30.228,6.214,42.269c0.108,0.352,0.236,0.697,0.384,1.034c7.334,16.765,19.048,31.784,33.874,43.433
		c0.057,0.044,0.114,0.089,0.172,0.132c21.92,16.44,47.673,24.828,73.522,24.826c18.704-0.001,37.46-4.393,54.838-13.305
		c0.073-0.038,0.146-0.077,0.217-0.115c23.356-12.74,40.948-31.088,51.103-53.19c23.903-3.431,42.337-24.035,42.337-48.872v-64.149
		c0-16.628-15.949-29.654-36.311-29.654C234.961,87.714,227.252,90.078,221.075,94.069z M190.964,19.908
		c2.463-0.962,5.127-0.658,7.311,0.833c2.182,1.491,3.434,3.862,3.434,6.506v11.557c-5.275-6.058-11.47-11.421-18.395-15.909
		L190.964,19.908z M201.709,89.409c0,34.304-31.492,62.213-70.201,62.213s-70.201-27.908-70.201-62.213s31.492-62.213,70.201-62.213
		S201.709,55.104,201.709,89.409z M137.802,177.282c0,3.47-2.824,6.294-6.294,6.294c-3.47,0-6.294-2.824-6.294-6.294
		c0-3.47,2.824-6.294,6.294-6.294C134.978,170.988,137.802,173.811,137.802,177.282z M61.307,27.247
		c0-2.644,1.252-5.015,3.434-6.506s4.848-1.795,7.31-0.833l7.65,2.987c-6.925,4.488-13.12,9.852-18.395,15.909V27.247z
		 M42.59,201.486c-3.763-10.754-1.795-22.612,1.595-32.527c0.076,0.168,0.152,0.338,0.229,0.507
		c6.239,13.631,19.445,31.116,46.932,37.004c6.041,1.295,10.427,6.716,10.427,12.89c0,3.944-1.452,7.033-4.317,9.183
		c-4.011,3.012-10.26,3.788-16.308,2.029h0.001C60.181,224.472,47.208,214.686,42.59,201.486z M58.84,137.042
		c11.767,14.85,28.876,25.964,48.742,30.985c-1.115,2.873-1.734,5.992-1.734,9.254c0,14.149,11.511,25.66,25.66,25.66
		c14.149,0,25.66-11.511,25.66-25.66c0-3.262-0.618-6.381-1.734-9.254c22.192-5.61,40.948-18.819,52.655-36.348
		c0.006,0.742,0.007,1.482,0.013,2.224c0.061,6.82,0.123,13.872-0.06,20.705c-0.044,1.643-0.514,3.917-2.502,5.424
		c-4.261,3.232-5.095,9.306-1.864,13.566c1.904,2.512,4.796,3.833,7.723,3.833c2.039,0,4.094-0.642,5.844-1.969
		c6.235-4.729,9.938-12.141,10.158-20.334c0.099-3.693,0.129-7.398,0.128-11.078c4.827,1.906,10.28,2.972,16.095,2.972
		c5.347,0,9.683-4.336,9.683-9.683c0-5.347-4.336-9.683-9.683-9.683c-9.986,0-16.945-5.422-16.945-10.288
		c0-4.866,6.959-10.288,16.945-10.288s16.945,5.422,16.945,10.288v64.149c0,16.552-13.465,30.017-30.017,30.017h-19.16
		c-5.347,0-9.683,4.336-9.683,9.683s4.336,9.683,9.683,9.683h4.068c-8.714,14.457-21.697,26.633-38.131,35.619
		c-34.697,17.742-75.945,13.998-107.706-9.773c-6.285-4.95-11.882-10.622-16.667-16.827c6.594,3.661,14.192,6.748,22.782,9.247
		h0.001c3.928,1.143,7.909,1.703,11.803,1.703c7.96,0,15.549-2.342,21.539-6.838c7.776-5.835,12.057-14.597,12.057-24.672
		c0-15.247-10.823-28.632-25.736-31.827C58.148,179.553,57.873,143.149,58.84,137.042z"/>
</g>
<g>
</g>
<g>
</g>
<g>
</g>
<g>
</g>
<g>
</g>
<g>
</g>
<g>
</g>
<g>
</g>
<g>
</g>
<g>
</g>
<g>
</g>
<g>
</g>
<g>
</g>
<g>
</g>
<g>
</g>
</svg>
