<?xml version="1.0" standalone="no"?>
<!DOCTYPE svg PUBLIC "-//W3C//DTD SVG 20010904//EN" "http://www.w3.org/TR/2001/REC-SVG-20010904/DTD/svg10.dtd">
<!-- Created using Krita: https://krita.org -->
<svg xmlns="http://www.w3.org/2000/svg" 
    xmlns:xlink="http://www.w3.org/1999/xlink"
    xmlns:krita="http://krita.org/namespaces/svg/krita"
    xmlns:sodipodi="http://sodipodi.sourceforge.net/DTD/sodipodi-0.dtd"
    width="322.56pt"
    height="160.56pt"
    viewBox="0 0 322.56 160.56">
<defs/>
<path id="shape0" transform="matrix(0.999999911903713 0 0 0.999999911903713 2.21625813721684 138.093581285294)" fill="none" stroke="#e23229" stroke-width="3.79314501020482" stroke-linecap="square" stroke-linejoin="miter" stroke-miterlimit="2" d="M0 19.9127L289.791 0" sodipodi:nodetypes="cc"/><path id="shape1" transform="matrix(0.999999911903713 0 0 0.999999911903713 30.1315510798078 2.11385391669262)" fill="none" stroke="#e23229" stroke-width="3.79314501020482" stroke-linecap="square" stroke-linejoin="miter" stroke-miterlimit="2" d="M290.013 0L0 19.8265" sodipodi:nodetypes="cc"/><text id="shape2" krita:useRichText="true" krita:textVersion="2" transform="matrix(0.999999911903713 -0.0621635796220181 4.89842498375642e-16 0.999999911903713 -0.0586221004420115 81.7195744888228)" fill="#ffffff" stroke-opacity="0" stroke="#000000" stroke-width="0" stroke-linecap="square" stroke-linejoin="bevel" font-family="Impact" font-size="60" font-size-adjust="0.530825" font-stretch="normal" font-style="italic" letter-spacing="-0.5" text-anchor="middle" word-spacing="0"><tspan x="105.169921875">CORVAX</tspan><tspan x="105.169921875" dy="58.8" fill="#bfbfbf">STATION</tspan></text><path id="shape3" transform="matrix(0.999999911903713 0 0 0.999999911903713 253.649951676474 80.0807330976642)" fill="#f5aa2a" stroke-opacity="0" stroke="#000000" stroke-width="0" stroke-linecap="square" stroke-linejoin="bevel" d="M5.93505e-05 5.47927C15.2567 2.34489 22.2944 0.219759 22.5439 0.0209849C22.5791 -0.00699497 24.6715 -0.00699497 28.8211 0.0209849C28.9092 1.74312 30.7996 3.45412 30.904 4.92057C31.3702 11.4725 30.0796 15.2036 29.43 14.8993C24.445 19.2251 20.8929 20.9863 16.2624 21.3776C15.019 20.7767 9.65392 20.0188 8.40479 19.43C6.79641 19.0312 4.62161 17.8088 3.45408 15.4317C2.52115 13.3599 3.19398 14.6755 2.03279 12.0058C2.02015 11.4248 -0.0126503 6.06743 5.93505e-05 5.47927Z" sodipodi:nodetypes="cccccccccc"/><path id="shape4" transform="matrix(0.999999911903713 0 0 0.999999911903713 231.089148582772 80.9747854268008)" fill="#f5aa2a" stroke-opacity="0" stroke="#000000" stroke-width="0" stroke-linecap="square" stroke-linejoin="bevel" d="M4.70638 0C3.35056 0.0405669 2.67897 0.0629533 2.69161 0.0671591C0.274532 4.11928 -0.0485037 4.11675 0.00524281 4.16386C0.103495 4.24998 0.0506253 3.86667 0.273879 7.92477C0.901918 11.4527 3.55018 12.1121 3.69899 12.2901C4.14095 12.8187 5.79735 11.5701 6.25104 12.0886C6.99273 12.9364 10.0381 6.76433 10.8262 7.56912C11.05 7.79763 8.11811 5.1633 4.70638 0Z" sodipodi:nodetypes="cccccccc"/><path id="shape5" transform="matrix(0.999999911903713 0 0 0.999999911903713 191.939845142855 36.3294194338201)" fill="#c4c054" stroke-opacity="0" stroke="#000000" stroke-width="0" stroke-linecap="square" stroke-linejoin="bevel" d="M1.81381 107.039C8.10008 98.801 -0.189366 109.044 8.14309 98.5074C11.6014 93.663 7.95372 98.4727 15.4404 88.5796C15.6161 88.4045 17.8948 85.9648 22.1862 80.0462C26.6428 75.1864 24.459 76.8281 26.0585 75.4714C28.2715 72.815 26.602 75.0247 28.2175 72.7526C34.1001 67.1212 36.0362 65.081 42.2539 58.7057C44.2107 56.4126 50.1051 51.8983 51.4447 51.227C48.6987 47.4466 44.3572 49.0696 44.7959 43.7723C42.8583 43.855 41.1455 47.3378 39.2217 45.7871C36.7895 43.8265 34.296 36.5113 33.6475 33.9671C33.378 32.1939 33.3432 26.56 33.849 20.6024C34.5316 12.5612 35.9464 3.92318 36.718 3.32421C38.0328 2.30358 42.2181 13.0489 43.6542 12.2075C44.5335 11.7299 56.7538 34.5927 63.739 49.1033C64.698 51.0954 64.21 52.2724 64.2302 53.2806C64.2745 55.5011 63.4916 56.3229 66.1802 59.1306C70.1274 63.7902 75.9987 65.3784 80.6102 64.4706C84.1619 63.7714 87.0325 60.9461 87.2934 60.8804C88.3799 59.3684 89.9007 57.9135 90.8102 55.6206C91.6194 53.5802 91.306 51.3983 91.2302 49.3806C91.1308 46.736 90.8532 44.439 88.1482 43.7723C90.6402 41.3363 97.365 27.2028 99.7802 24.6906C101.317 23.0923 106.558 16.7863 116.88 5.02867C118.378 3.32258 120.368 1.93443 122.055 0C122.023 2.97636 122.522 6.10231 122.49 9.07867C122.436 14.1192 122.573 19.23 122.37 24.2287C122.218 27.9891 121.716 31.6346 121.675 35.4265C120.551 43.514 118.683 49.6559 116.071 53.8521C113.133 56.8739 108.353 59.7548 101.73 62.4951C101.462 62.7736 100.323 63.1052 100.187 63.2878C99.8093 63.7972 100.873 64.017 101.418 65.3879C101.478 67.2107 101.648 69.4972 100.202 70.9046C99.9122 71.1869 96.6804 77.1288 96.3069 77.2847C94.9969 79.6 94.9352 79.4911 93.6535 81.0008C92.0004 82.9481 89.4464 84.6898 88.315 85.3438C86.8717 86.1637 81.7679 88.4528 80.455 89.4686C79.1063 90.5121 71.1496 90.5311 67.0927 90.1121C59.9033 87.8403 59.3109 86.53 58.6577 87.1417C57.8144 87.9314 56.2357 89.1188 55.2056 89.642C53.8775 90.3164 47.5805 95.2636 46.1682 95.7371C45.1858 96.0664 42.7615 97.3546 41.8942 97.9216C39.7693 99.3107 38.3966 99.0105 36.4805 100.676C34.8705 102.075 35.9852 101.104 28.9802 104.131C28.7946 104.338 24.8253 105.493 24.6302 105.691C19.7502 107.719 17.3204 108.368 16.6284 108.493L7.33699 111.484C7.34528 111.665 4.90526 112.027 0.235874 112.913C-0.357434 111.289 0.168545 109.331 1.81381 107.039Z" sodipodi:nodetypes="ccccccccccccccccccccccccccccccccccccccccccccccccc"/><path id="shape6" transform="matrix(0.999999911903713 0 0 0.999999911903713 231.458014864761 6.29389269570095)" fill="#ffbc50" stroke-opacity="0" stroke="#000000" stroke-width="0" stroke-linecap="square" stroke-linejoin="bevel" d="M40.522 2.22611C39.8687 2.85287 39.1085 3.88368 38.512 4.44611C33.7501 8.9361 30.3976 10.8258 29.2536 11.2156C28.903 11.9786 29.2674 12.6483 30.3469 13.2245C32.4391 13.3806 35.2563 14.902 36.4647 15.5557C40.636 18.7086 46.2489 22.9743 45.7747 23.9086C46.0827 23.9539 52.1411 32.7911 52.1442 33.0748C52.1562 34.2065 53.9358 36.6814 55.2596 39.5478C57.7767 44.9978 60.6522 51.9145 60.682 54.0661C60.6876 54.4649 57.6156 62.1086 55.5799 65.7487C53.5386 69.3988 53.4071 70.0502 52.3563 70.8528C45.3059 78.9231 33.2172 81.5647 16.0904 78.7776L0.286554 72.1105C0.146312 70.4932 0.0513379 69.1635 0.00163004 68.1214C-0.0361539 67.3293 0.595701 63.3104 0.571494 62.5178C0.467248 59.1043 2.99172 48.3591 2.85093 44.947C2.83603 44.5857 7.49127 29.6372 9.03866 28.3411C8.17108 28.8761 13.3461 20.7894 16.7176 16.6912C19.359 13.5203 19.9858 14.6902 21.0866 13.0821C19.9027 12.0184 18.5814 11.7846 17.302 11.0161C16.0721 10.2773 14.8792 9.00039 13.972 8.16611C12.5255 6.83596 12.078 4.85659 10.9191 3.76091L15.8217 0.73875C15.9425 1.65446 16.8553 2.36847 17.722 3.81611C18.6466 5.36044 19.5759 7.67551 21.3288 9.83881C21.8002 10.8254 22.9313 10.4721 24.9672 10.7615C25.6641 10.4506 25.8212 10.6388 26.5794 9.78572C27.1142 8.93961 28.0885 8.11389 28.5734 7.36741C31.1048 3.47088 33.1853 1.18202 34.3576 0C35.1732 0.0764958 37.5846 0.894461 40.522 2.22611Z" sodipodi:nodetypes="cccccccccccccccccccccccccccccc"/><path id="shape7" transform="matrix(0.999999911903713 0 0 0.999999911903713 265.989726495363 83.5939932246229)" fill="#000000" stroke-opacity="0" stroke="#000000" stroke-width="0" stroke-linecap="square" stroke-linejoin="bevel" d="M1.03478 4.02955C1.43435 2.63847 -0.929458 2.19661 0.421553 1.55375C1.70198 0.944469 6.64959 0.100877 8.75808 0C8.57401 1.86701 8.30537 3.21019 7.95216 4.02954C6.01399 7.45525 3.7082 7.45525 1.03478 4.02955Z" sodipodi:nodetypes="ccccc"/><path id="shape8" transform="matrix(0.999999911903713 0 0 0.999999911903713 235.997020283912 81.2434273425987)" fill="#000000" stroke-opacity="0" stroke="#000000" stroke-width="0" stroke-linecap="square" stroke-linejoin="bevel" d="M0 0C1.0291 4.2865 2.21557 6.4356 3.55943 6.44727C4.5961 7.19802 6.56668 8.05103 10.0067 3.35795C6.95917 2.40141 5.05633 1.66266 4.29818 1.1417Z" sodipodi:nodetypes="ccccc"/><path id="shape9" transform="matrix(0.999999911903713 0 0 0.999999911903713 266.003061007683 105.477818690689)" fill="#ffffff" stroke-opacity="0" stroke="#000000" stroke-width="0" stroke-linecap="square" stroke-linejoin="bevel" d="M0.0140523 14.7179C0.244108 14.7717 1.34105 13.7419 3.30487 11.6286C4.59727 10.562 6.42176 9.85683 8.77833 9.51305C10.3321 8.14556 11.1268 6.34346 11.1625 4.10674C11.8505 3.38828 13.0705 2.38089 14.8226 1.08458C15.8362 0.536798 16.9219 0.201001 18.0798 0.0771895C19.9421 -0.141579 20.8264 0.104673 20.7326 0.815945C19.2023 2.39939 18.1054 3.91047 17.4418 5.34918C16.8106 5.95838 16.3741 6.67474 16.1322 7.49827C15.8373 10.2464 15.2664 12.2052 14.4197 13.3747C11.9372 12.2381 10.2582 12.1485 9.38275 13.1061C5.23197 15.3121 3.09407 16.4762 2.96905 16.5983C2.19566 17.1177 -0.204896 14.67 0.0140523 14.7179Z" sodipodi:nodetypes="ccccccccccccc"/><path id="shape10" transform="matrix(0.999999911903713 0 0 0.999999911903713 257.815834322543 100.853876391808)" fill="none" stroke="#000000" stroke-width="1.11752714181672" stroke-linecap="square" stroke-linejoin="bevel" d="M2.52635 0L3.73521 1.10812L4.44038 2.31699L4.94407 4.16386L5.14555 6.54801L5.11197 7.89119L4.77618 9.70449L3.90311 11.2156L3.0972 12.5923L0 16.0638" sodipodi:nodetypes="cccccccccc"/><path id="shape11" transform="matrix(0.999999911903713 0 0 0.999999911903713 191.343099491294 115.763194466763)" fill="none" stroke="#000000" stroke-width="1.11752714181672" stroke-linecap="square" stroke-linejoin="bevel" d="M2.63044 27.474L1.80312 29.362L0.381838 32.6076L0 34.0077L2.84257 33.5834L6.61852 32.65L8.52233 32.0349L13.6264 30.4902L26.1549 26.086L34.038 23.1417L44.1056 18.0604L49.8042 14.6412L55.2179 10.7946L59.899 6.71591L64.1301 3.22364L67.4209 0" sodipodi:nodetypes="cccccccccccccccc"/><path id="shape12" transform="matrix(0.999999911903713 0 0 0.999999911903713 237.306615675234 82.6537657197571)" fill="none" stroke="#000000" stroke-width="1.11752714181672" stroke-linecap="square" stroke-linejoin="bevel" d="M0.0335795 0L0 1.6454L0.268636 2.7871L1.04097 3.86165L2.14909 4.7683L3.79449 6.01074L4.56682 6.01074" sodipodi:nodetypes="ccccccc"/><path id="shape13" transform="matrix(0.999999911903713 0 0 0.999999911903713 225.048665358828 39.4033181591954)" fill="none" stroke="#000000" stroke-width="1.11752714181672" stroke-linecap="square" stroke-linejoin="bevel" d="M7.17078 43.9399L4.60639 40.6984L2.61187 35.7718L0.949769 31.3554L0 23.1873L1.14312 12.9617L2.08335 6.98454L3.69517 0L3.56085 0.201477L6.11289 3.22364L8.32914 5.97716L9.78149 8.96278" sodipodi:nodetypes="cccccccccccc"/><path id="shape14" transform="matrix(0.999999911903713 0 0 0.999999911903713 290.664497139776 68.5503573650605)" fill="none" stroke="#000000" stroke-width="1.11752714181672" stroke-linecap="square" stroke-linejoin="bevel" d="M9.87239 0L8.26057 1.54466L5.70852 4.49966L1.89551 10.9377L0 14.7078" sodipodi:nodetypes="ccccc"/><path id="shape15" transform="matrix(0.999999911903713 0 0 0.999999911903713 286.702127370877 60.4241122872357)" fill="none" stroke="#000000" stroke-width="1.11752714181672" stroke-linecap="square" stroke-linejoin="bevel" d="M5.30557 0L4.68243 1.9908L3.76091 3.96239L2.955 5.84284L2.41773 7.45466L1.74614 8.865L1.41034 10.2082L0 12.6931L0.873068 15.5137L0.73875 21.4237L0.537273 21.7595" sodipodi:nodetypes="ccccccccccc"/><path id="shape16" transform="matrix(0.999999911903713 0 0 0.999999911903713 231.195724484398 73.1275745374659)" fill="none" stroke="#000000" stroke-width="1.11752714181672" stroke-linecap="square" stroke-linejoin="bevel" d="M55.5219 0L54.2067 2.01525L52.4171 4.01914L49.0591 6.97414L46.3056 8.58596L43.7536 9.66051L40.4628 10.7351L35.7616 12.1454L30.0531 12.5484L24.8819 12.2126L19.1734 12.1454L12.0545 10.7351L8.36072 9.32471L3.79391 6.97414L3.99538 6.97414L3.99538 6.97414L2.6522 8.31733L1.10754 10.0635L0.303972 12.0703C0.338503 12.7264 -0.0322576 13.5919 0.00227362 14.248C0.0349014 14.8679 0.504689 16.2021 0.537317 16.8221L1.84629 18.8613L3.65959 20.7418" sodipodi:nodetypes="ccccccccccccccccccccccc"/><path id="shape17" transform="matrix(0.999999911903713 0 0 0.999999911903713 231.631683169401 18.0467309896149)" fill="none" stroke="#000000" stroke-width="1.11752714181672" stroke-linecap="square" stroke-linejoin="bevel" d="M18.8234 105.472L21.7677 107.181L24.9495 108.464L30.2682 108.986L37.8189 108.606L44.6098 106.469L51.9705 101.768L56.197 96.6389L59.4262 91.7476L61.4682 87.3312L61.9803 84.0524L61.2802 82.5039L60.1385 81.585L65.1779 79.8186L69.4425 77.7031L73.3377 75.0167L76.0912 72.599L78.5761 69.1067L79.9865 65.413L80.9267 60.1745L82.1355 52.3841L83.0086 44.325L83.0083 32.2814L83.0758 22.0618L82.5385 17.4614L78.1367 21.9393L73.7678 27.2106L69.1139 32.3868L66.502 35.7585L63.0828 39.7476L60.7287 42.7136L60.1483 40.6333L57.7483 33.9733L53.9083 25.5133L50.0709 18.1877L46.0916 12.8397C45.1796 11.7307 44.5428 11.0212 43.6308 9.91227C42.8117 8.91615 41.5176 7.64487 40.6984 6.64875C39.3337 5.79762 38.5467 4.73885 37.182 3.88772C36.13 3.23161 34.5005 2.78314 33.4485 2.12702L28.8112 0.805909L23.5728 0L21.5581 0.671591C19.6323 2.24449 19.7402 1.89055 17.8144 3.46346C17.6336 3.61111 15.492 5.84017 15.3112 5.98783C14.4864 7.2612 13.1681 8.5799 12.3433 9.85327C10.9765 11.9634 10.0303 13.8737 8.6635 15.9839L4.29189 26.1658L1.34317 38.8851L0.671576 44.7279L0 52.2498L0.201477 60.7118L3.02215 62.055" sodipodi:nodetypes="ccccccccccccccccccccccccccccccccccccccccccccccccccccc"/><path id="shape18" transform="matrix(0.999999911903713 0 0 0.999999911903713 194.022586739576 84.3327426198778)" fill="none" stroke="#000000" stroke-width="1.11752714181672" stroke-linecap="square" stroke-linejoin="bevel" d="M0 58.9657L1.67898 55.9435L3.96239 52.5184L7.3875 47.9516L11.417 42.7803C12.9841 40.8999 14.5511 39.0194 16.1182 37.139L21.4909 30.4231L26.8636 24.1101L32.5722 18.4016L38.9523 11.7528L46.6756 5.10409L50.0335 2.08193L52.1826 0L52.1826 0" sodipodi:nodetypes="cccccccccccccc"/><path id="shape19" transform="matrix(0.999999911903713 0 0 0.999999911903713 275.150758049865 95.2796730389502)" fill="none" stroke="#000000" stroke-width="1.11752714181672" stroke-linecap="square" stroke-linejoin="bevel" d="M9.06648 0L8.19341 2.35057L6.85023 3.96239L5.50705 5.30557L3.82807 6.58159L2.48489 7.32034L0.470114 7.65614L0 7.25318" sodipodi:nodetypes="cccccccc"/><path id="shape20" transform="matrix(0.999999911903713 0 0 0.999999911903713 229.227662250954 68.4792248202543)" fill="none" stroke="#000000" stroke-width="1.11752714181672" stroke-linecap="square" stroke-linejoin="bevel" d="M0 0L0.379909 1.80457L1.51964 5.12877L2.23197 6.2685" sodipodi:nodetypes="cccc"/><path id="shape21" transform="matrix(0.999999911903713 0 0 0.999999911903713 256.058760674438 80.1599963378908)" fill="none" stroke="#000000" stroke-width="1.11752714181672" stroke-linecap="square" stroke-linejoin="bevel" d="M0.332421 5.51012L0 7.59962L0.237443 9.6891L0.379909 11.5887L1.04124 13.92L2.18124 15.84L3.46357 17.2086L5.0338 18.3321L6.55343 18.8069L8.21554 19.3293L11.5397 19.9467L14.484 20.3741L16.6685 19.9942L19.4703 19.0444L21.9872 17.8572L23.7212 16.4881L25.1312 14.5681L26.4512 12.396L27.0685 9.9266L27.211 7.2672L27.2585 5.27268L26.5936 2.18592L25.7863 1.09368L24.8612 0" sodipodi:nodetypes="cccccccccccccccccccccccc"/><path id="shape22" transform="matrix(0.999999911903713 0 0 0.999999911903713 266.458759705571 83.2481928545405)" fill="none" stroke="#000000" stroke-width="1.11752714181672" stroke-linecap="square" stroke-linejoin="bevel" d="M7.59818 0L7.88311 2.42192L6.79088 5.0338L5.36622 6.03106L3.08676 6.31599L0.664841 5.12877L0 3.98905L0.0949773 2.27945" sodipodi:nodetypes="cccccccc"/><path id="shape23" transform="matrix(0.999999911903713 0 0 0.999999911903713 253.209426176597 106.565111299656)" fill="none" stroke="#000000" stroke-width="1.11752714181672" stroke-linecap="square" stroke-linejoin="bevel" d="M0 15.1489L1.61461 15.6238L3.56165 16.5735L4.98631 16.526L6.79088 16.6685L8.40549 16.6685L9.73517 15.9562L12.2521 13.2493L15.2913 10.7799L17.7608 9.07033L19.3279 8.97536L19.8977 9.16531L22.8895 7.21827L23.4119 5.55617L23.4119 3.46667L24.7416 1.51964L26.2612 0L27.306 0.569864L28.3507 1.09224L30.0128 2.61188L30.0603 4.27398L29.443 5.22375L28.8731 5.93608L28.8256 8.358L28.9681 10.2101L27.6859 11.4923L26.4512 12.6795L24.1242 12.2046L22.5571 11.9671L21.085 11.7297L20.4201 12.5845L19.4703 13.2968L18.0457 14.0091L17.3334 15.0064L15.0064 15.3863L14.1516 14.484L12.442 14.3416L11.7772 14.1041L9.1653 16.1461L9.30777 16.2411" sodipodi:nodetypes="cccccccccccccccccccccccccccccccccccccccc"/><path id="shape24" transform="matrix(0.999999911903713 0 0 0.999999911903713 270.046662200945 116.972053268305)" fill="none" stroke="#000000" stroke-width="1.11752714181672" stroke-linecap="square" stroke-linejoin="bevel" d="M0 0L2.6192 2.35057" sodipodi:nodetypes="cc"/><path id="shape25" transform="matrix(0.999999911903713 0 0 0.999999911903713 275.82234292978 114.420008295099)" fill="none" stroke="#000000" stroke-width="1.11752714181672" stroke-linecap="square" stroke-linejoin="bevel" d="M0 0L3.2908 3.82807" sodipodi:nodetypes="cc"/><path id="shape26" transform="matrix(0.999999911903713 0 0 0.999999911903713 276.561092790446 112.002281478377)" fill="none" stroke="#000000" stroke-width="1.11752714181672" stroke-linecap="square" stroke-linejoin="bevel" d="M5.23841 0.268636L0 0" sodipodi:nodetypes="cc"/><path id="shape27" transform="matrix(0.999999911903713 0 0 0.999999911903713 279.650425104929 105.084901946511)" fill="none" stroke="#000000" stroke-width="1.11752714181672" stroke-linecap="square" stroke-linejoin="bevel" d="M0 1.54466L3.08932 0.402955L5.77568 0L6.98455 0.805909L6.2458 3.89523L3.42511 5.84284" sodipodi:nodetypes="cccccc"/><path id="shape28" transform="matrix(0.999999911903713 0 0 0.999999911903713 240.862385231581 35.3321567720153)" fill="none" stroke="#250a00" stroke-width="1.11752714181672" stroke-linecap="square" stroke-linejoin="bevel" d="M3.70411 2.04201L1.28219 1.32968L0 0" sodipodi:nodetypes="ccc"/><path id="shape29" transform="matrix(0.999999911903713 0 0 0.999999911903713 234.403926026232 19.9933267651035)" fill="none" stroke="#250a00" stroke-width="1.11752714181672" stroke-linecap="square" stroke-linejoin="bevel" d="M18.1407 0L15.2914 4.27398L13.3918 8.59544L12.2521 12.2521L11.5397 15.2913L11.2073 17.1434L9.51786 23.7753L8.30899 32.4389L7.50321 35.664L4.27398 35.569L2.13699 34.2393L0 32.8147" sodipodi:nodetypes="cccccccccccc"/><path id="shape30" transform="matrix(0.999999911903713 0 0 0.999999911903713 232.504376227841 55.7522719380812)" fill="none" stroke="#250a00" stroke-width="1.11752714181672" stroke-linecap="square" stroke-linejoin="bevel" d="M9.35527 0L9.40275 15.6712L9.40275 15.6712C7.78814 15.7029 6.79088 15.7187 6.41097 15.7187C6.03106 15.7187 5.04963 15.513 3.46667 15.1014L0 12.632" sodipodi:nodetypes="ccczcc"/><path id="shape31" transform="matrix(0.999999911903713 0 0 0.999999911903713 250.612773765179 51.6934306684963)" fill="none" stroke="#250a00" stroke-width="1.11752714181672" stroke-linecap="square" stroke-linejoin="bevel" d="M0 6.55802L5.60029 6.98229L10.3674 6.58159L14.9342 5.10409L20.6427 3.2908L25.6797 1.4775L27.6944 0" sodipodi:nodetypes="ccccccc"/><path id="shape32" transform="matrix(0.999999911903713 0 0 0.999999911903713 250.487675301003 20.3895305310962)" fill="none" stroke="#250a00" stroke-width="1.11752714181672" stroke-linecap="square" stroke-linejoin="bevel" d="M19.6933 14.1112L16.7383 9.27572L13.246 5.11186L8.67922 0.813677L6.93334 0L3.79909 4.84384L2.65936 9.59271L2.37443 12.9169L1.42466 18.4256L0.379909 24.7891L0.0949773 32.8621L0 38.5608L0.759818 44.7343L2.04203 50.5754L5.84112 51.4777L11.3023 51.3352L16.5261 50.4804L21.2749 49.3407L25.7389 47.6311L29.8704 45.2567C29.7632 43.8276 29.8035 42.6908 29.6963 41.2617C29.6124 40.1442 29.381 38.7344 29.2971 37.6169C29.0155 36.5758 28.9739 35.5096 28.6923 34.4686C28.2352 32.7785 27.538 31.1135 27.0808 29.4234L22.9841 20.6928L20.0291 14.2455L16.6712 16.1931L13.7162 17.4691L9.48513 18.5437L4.51536 18.7452L1.69488 18.4731" sodipodi:nodetypes="ccccccccccccccccccccccccccccccc"/><path id="shape33" transform="matrix(0.999999911903713 0 0 0.999999911903713 242.242818168113 7.09980168195668)" fill="none" stroke="#000000" stroke-width="1.11752714181672" stroke-linecap="square" stroke-linejoin="bevel" d="M10.6111 12.0215L6.2458 10.3425L3.35795 7.92477L1.1417 5.03693L0 3.08932L2.41773 0.940227L5.43989 0L6.98455 2.28341C7.56659 3.98477 8.0367 5.17125 8.39489 5.84284C8.75307 6.51443 9.78284 7.7233 11.4842 9.46943L12.0886 10.6111L12.0215 11.2156" sodipodi:nodetypes="cccccccczccc"/><path id="shape34" transform="matrix(0.999999911903713 0 0 0.999999911903713 254.600089297195 16.8378686043308)" fill="none" stroke="#000000" stroke-width="1.11752714181672" stroke-linecap="square" stroke-linejoin="bevel" d="M0 0.268636L2.75352 0" sodipodi:nodetypes="cc"/><path id="shape35" transform="matrix(0.999999911903713 0 0 0.999999911903713 257.353611668349 6.49536994194725)" fill="none" stroke="#000000" stroke-width="1.11752714181672" stroke-linecap="square" stroke-linejoin="bevel" d="M0 10.3425L3.22364 5.64136L5.70852 2.68636L8.19341 0L9.46943 0.134318C11.126 0.940227 12.2901 1.34318 12.9617 1.34318C13.6333 1.34318 14.2825 1.52227 14.9093 1.88045L13.499 3.69375L8.26057 7.85761L6.17864 9.67091L3.2908 11.2156C3.2908 11.2156 2.19386 10.9245 0 10.3425Z" sodipodi:nodetypes="ccccczcccccc"/>
</svg>
